<svg xmlns="http://www.w3.org/2000/svg" xmlns:xlink="http://www.w3.org/1999/xlink" width="1200" height="1200" viewBox="0 0 1200 1200"><g><g transform="translate(600 600) scale(0.69 0.69) rotate(0) translate(-600 -600)" style="fill:#0d1c72"><svg fill="#0d1c72" xmlns="http://www.w3.org/2000/svg" xmlns:xlink="http://www.w3.org/1999/xlink" xml:space="preserve" version="1.1" style="shape-rendering:geometricPrecision;text-rendering:geometricPrecision;image-rendering:optimizeQuality;" viewBox="0 0 7666 7666" x="0px" y="0px" fill-rule="evenodd" clip-rule="evenodd"><defs><style type="text/css">
   
    .fil0 {fill:#0d1c72;fill-rule:nonzero}
   
  </style></defs><g><path class="fil0" d="M3833 0c1058,0 2017,429 2710,1123 694,693 1123,1652 1123,2710 0,1058 -429,2017 -1123,2710 -693,694 -1652,1123 -2710,1123 -1058,0 -2017,-429 -2710,-1123 -694,-693 -1123,-1652 -1123,-2710 0,-1058 429,-2017 1123,-2710 693,-694 1652,-1123 2710,-1123zm2484 1349c-635,-636 -1514,-1029 -2484,-1029 -970,0 -1849,393 -2484,1029 -636,635 -1029,1514 -1029,2484 0,970 393,1849 1029,2484 635,636 1514,1029 2484,1029 970,0 1849,-393 2484,-1029 636,-635 1029,-1514 1029,-2484 0,-970 -393,-1849 -1029,-2484zm-3962 330l2956 0c185,0 355,76 477,199 123,122 199,291 199,477l0 1089 -320 0 0 -1089c0,-98 -40,-187 -104,-252 -65,-64 -154,-104 -252,-104l-2956 0c-98,0 -187,40 -252,104 -64,65 -104,154 -104,252l0 2956c0,98 40,187 104,252 65,64 154,104 252,104l2956 0c98,0 187,-40 252,-104 64,-65 104,-154 104,-252l0 -1053 320 0 0 1053c0,185 -76,354 -199,477 -123,123 -292,199 -477,199l-2956 0c-186,0 -355,-76 -478,-199 -122,-122 -198,-292 -198,-477l0 -2956c0,-186 76,-355 198,-478 123,-122 292,-198 478,-198zm1478 855c358,0 683,146 918,381l0 0 -225 227 -1 -1c-177,-177 -422,-287 -692,-287 -270,0 -515,110 -692,287 -177,177 -287,422 -287,692 0,270 110,515 287,692 176,177 421,287 692,287 271,0 515,-110 692,-286l0 -1 226 226c-236,235 -560,380 -918,380 -358,0 -683,-145 -918,-380 -235,-235 -381,-560 -381,-918 0,-358 146,-683 381,-918 235,-235 560,-381 918,-381zm0 1050c137,0 249,112 249,249 0,137 -112,249 -249,249 -137,0 -249,-112 -249,-249 0,-137 112,-249 249,-249zm-1387 -1387c137,0 248,111 248,249 0,137 -111,248 -248,248 -138,0 -249,-111 -249,-248 0,-138 111,-249 249,-249zm2774 0c138,0 249,111 249,249 0,137 -111,248 -249,248 -137,0 -248,-111 -248,-248 0,-138 111,-249 248,-249zm-2774 2775c137,0 248,111 248,248 0,138 -111,249 -248,249 -138,0 -249,-111 -249,-249 0,-137 111,-248 249,-248zm2774 0c138,0 249,111 249,248 0,138 -111,249 -249,249 -137,0 -248,-111 -248,-249 0,-137 111,-248 248,-248zm-992 -1107l0 -1 -1 -3c0,-5 -1,-10 -2,-15l0 -1 0 -3 0 -1c0,-5 0,-10 0,-15l0 -1 1 -10 0 -2 1 -8 1 -2 0 -2c1,-5 3,-10 4,-15l0 -1c8,-24 21,-45 39,-64l824 -824c62,-62 163,-63 225,-1 62,62 63,163 1,226l-552 552 1218 -1c88,0 159,72 159,160 0,88 -71,159 -159,159l-1218 0 552 552c62,62 62,163 0,225 -62,62 -163,63 -225,1l-824 -824c-23,-23 -38,-51 -44,-81z"></path></g></svg></g></g></svg>