<svg xmlns="http://www.w3.org/2000/svg" xmlns:xlink="http://www.w3.org/1999/xlink" width="1200" height="1200" viewBox="0 0 1200 1200"><g><g transform="translate(600 600) scale(0.69 0.69) rotate(0) translate(-600 -600)" style="fill:#0d1c72"><svg fill="#0d1c72" xmlns="http://www.w3.org/2000/svg" xmlns:xlink="http://www.w3.org/1999/xlink" xml:space="preserve" version="1.1" style="shape-rendering:geometricPrecision;text-rendering:geometricPrecision;image-rendering:optimizeQuality;" viewBox="0 0 5003 5003" x="0px" y="0px" fill-rule="evenodd" clip-rule="evenodd"><defs><style type="text/css">
   
    .fil0 {fill:#0d1c72;fill-rule:nonzero}
   
  </style></defs><g><path class="fil0" d="M4123 880c-415,-415 -988,-671 -1621,-671 -634,0 -1207,256 -1622,671 -415,415 -671,988 -671,1622 0,633 256,1206 671,1621 415,415 988,672 1622,672 633,0 1206,-257 1621,-672 415,-415 672,-988 672,-1621 0,-634 -257,-1207 -672,-1622zm-1621 -880c690,0 1316,280 1768,733 453,452 733,1078 733,1769 0,690 -280,1316 -733,1768 -452,453 -1078,733 -1768,733 -691,0 -1317,-280 -1769,-733 -453,-452 -733,-1078 -733,-1768 0,-691 280,-1317 733,-1769 452,-453 1078,-733 1769,-733zm-903 1320l1159 0 0 209 -1159 0c-10,0 -19,4 -26,10 -6,7 -10,16 -10,26l0 2299c0,10 4,19 10,25 7,7 16,11 26,11l1817 0c10,0 19,-4 25,-10 7,-7 11,-16 11,-26l0 -1602 209 0 0 1602c0,67 -28,128 -72,172 -45,45 -106,72 -173,72l-1817 0c-67,0 -128,-27 -173,-71 -44,-45 -72,-106 -72,-173l0 -2299c0,-67 28,-128 72,-173 45,-44 106,-72 173,-72zm338 743c-58,0 -104,-47 -104,-104 0,-58 46,-105 104,-105l1141 0c58,0 104,47 104,105 0,57 -46,104 -104,104l-1141 0zm0 463c-58,0 -104,-46 -104,-104 0,-57 46,-104 104,-104l1141 0c58,0 104,47 104,104 0,58 -46,104 -104,104l-1141 0zm0 464c-58,0 -104,-47 -104,-104 0,-58 46,-105 104,-105l1141 0c58,0 104,47 104,105 0,57 -46,104 -104,104l-1141 0zm0 463c-58,0 -104,-46 -104,-104 0,-58 46,-104 104,-104l811 0c57,0 104,46 104,104 0,58 -47,104 -104,104l-811 0zm1664 -2514l109 356 356 109c33,10 51,45 41,78 -6,20 -22,35 -41,41l-356 109 -109 356c-10,33 -45,52 -78,41 -20,-6 -35,-22 -41,-41l-109 -356 -356 -109c-33,-10 -52,-45 -42,-78 7,-20 23,-35 42,-41l356 -109 109 -356c10,-33 45,-51 78,-41 20,6 35,22 41,41z"></path></g></svg></g></g></svg>