<svg xmlns="http://www.w3.org/2000/svg" xmlns:xlink="http://www.w3.org/1999/xlink" width="1200" height="1200" viewBox="0 0 1200 1200"><g><g transform="translate(600 600) scale(0.69 0.69) rotate(0) translate(-600 -600)" style="fill:#0d1c72"><svg fill="#0d1c72" xmlns="http://www.w3.org/2000/svg" xmlns:xlink="http://www.w3.org/1999/xlink" xml:space="preserve" version="1.1" style="shape-rendering:geometricPrecision;text-rendering:geometricPrecision;image-rendering:optimizeQuality;" viewBox="0 0 3720 3720" x="0px" y="0px" fill-rule="evenodd" clip-rule="evenodd"><defs><style type="text/css">
   
    .fil1 {fill:#0d1c72}
    .fil0 {fill:#0d1c72;fill-rule:nonzero}
   
  </style></defs><g><path class="fil0" d="M3065 654c-308,-308 -734,-499 -1205,-499 -471,0 -897,191 -1206,499 -308,309 -499,735 -499,1206 0,471 191,897 499,1205 309,309 735,500 1206,500 471,0 897,-191 1205,-500 309,-308 500,-734 500,-1205 0,-471 -191,-897 -500,-1206zm-1205 -654c514,0 979,208 1315,545 337,336 545,801 545,1315 0,514 -208,979 -545,1315 -336,337 -801,545 -1315,545 -514,0 -979,-208 -1315,-545 -337,-336 -545,-801 -545,-1315 0,-514 208,-979 545,-1315 336,-337 801,-545 1315,-545zm-378 1133l209 0 29 -191c30,-195 169,-315 318,-355 52,-14 105,-18 156,-13l3 1c51,6 101,21 144,48 102,61 167,176 142,342l-26 168 185 0c12,0 25,1 39,3 57,8 106,37 141,78l4 5c32,40 50,91 50,146 0,12 -1,26 -3,39l-177 1160c-11,69 -48,131 -100,176 -51,45 -118,73 -187,73l-1161 0c-11,0 -24,-2 -38,-4 -57,-8 -106,-36 -141,-77l-4 -6c-32,-40 -50,-90 -50,-146 0,-12 1,-25 3,-39l25 -169 -540 0c-43,0 -78,-34 -78,-77 0,-43 35,-78 78,-78l564 0 38 -244 -380 0c-43,0 -78,-35 -78,-78 0,-42 35,-77 78,-77l403 0 67 -437c11,-69 48,-131 100,-176 51,-44 118,-72 187,-72zm190 1239c-43,0 -78,-35 -78,-77 0,-43 35,-78 78,-78l263 0c43,0 78,35 78,78 0,42 -35,77 -78,77l-263 0zm-448 -155l213 0c43,0 78,35 78,78 0,43 -35,77 -78,77l-237 0 -29 192 -1 16c0,19 5,36 14,49l3 3c11,12 27,21 46,24 4,1 9,1 15,1l1161 0c31,0 62,-13 86,-34 25,-21 42,-50 47,-82l178 -1160 1 -16c0,-19 -5,-36 -15,-48l-2 -3c-11,-13 -27,-22 -46,-25 -4,-1 -9,-1 -16,-1l-209 0 -45 292c-6,42 -45,71 -88,65 -42,-7 -71,-46 -65,-88l41 -269 -452 0 -45 298c-7,42 -46,71 -88,65 -43,-6 -72,-46 -66,-88l43 -275 -186 0c-31,0 -62,13 -86,34 -25,22 -43,51 -47,82l-64 414 547 0c43,0 78,35 78,77 0,43 -35,78 -78,78l-571 0 -37 244zm624 -1084l452 0 29 -191c15,-94 -17,-156 -68,-187 -23,-14 -51,-23 -81,-26l-2 -1c-32,-3 -66,0 -100,9 -96,26 -185,102 -204,228l-26 168z"></path><circle class="fil1" cx="1691" cy="1581" r="142"></circle><circle class="fil1" cx="2300" cy="1581" r="142"></circle></g></svg></g></g></svg>