<svg xmlns="http://www.w3.org/2000/svg" xmlns:xlink="http://www.w3.org/1999/xlink" width="1200" height="1200" viewBox="0 0 1200 1200"><g><g transform="translate(600 600) scale(0.69 0.69) rotate(0) translate(-600 -600)" style="fill:#0d1c72"><svg fill="#0d1c72" xmlns="http://www.w3.org/2000/svg" xmlns:xlink="http://www.w3.org/1999/xlink" xml:space="preserve" version="1.1" style="shape-rendering:geometricPrecision;text-rendering:geometricPrecision;image-rendering:optimizeQuality;" viewBox="0 0 35889 35889" x="0px" y="0px" fill-rule="evenodd" clip-rule="evenodd"><defs><style type="text/css">
   
    .fil0 {fill:#0d1c72;fill-rule:nonzero}
   
  </style></defs><g><path class="fil0" d="M29575 6314c-2976,-2976 -7088,-4817 -11630,-4817 -4543,0 -8655,1841 -11631,4817 -2976,2976 -4817,7089 -4817,11631 0,4542 1841,8655 4817,11630 2976,2976 7088,4818 11631,4818 4542,0 8654,-1842 11630,-4818 2976,-2975 4818,-7088 4818,-11630 0,-4542 -1842,-8655 -4818,-11631zm-11630 -6314c4954,0 9441,2009 12688,5256 3247,3247 5256,7734 5256,12689 0,4955 -2009,9441 -5256,12688 -3247,3247 -7734,5256 -12688,5256 -4955,0 -9442,-2009 -12689,-5256 -3247,-3247 -5256,-7733 -5256,-12688 0,-4955 2009,-9442 5256,-12689 3247,-3247 7734,-5256 12689,-5256zm0 6628c3122,0 5951,1267 7999,3315 2050,2050 3317,4879 3317,8002 0,3122 -1267,5951 -3314,7999 -2048,2050 -4878,3317 -8002,3317 -3125,0 -5955,-1267 -8002,-3314 -2048,-2048 -3315,-4878 -3315,-8002 0,-3125 1267,-5955 3315,-8002 2050,-2048 4879,-3315 8002,-3315zm6945 4371c-1777,-1775 -4233,-2875 -6945,-2875 -2713,0 -5169,1100 -6946,2875 -1775,1778 -2875,4234 -2875,6946 0,2711 1100,5167 2876,6944 1777,1776 4233,2876 6945,2876 2711,0 5167,-1100 6944,-2876 1776,-1776 2876,-4232 2876,-6944 0,-2713 -1100,-5169 -2875,-6946zm-6197 -3543l0 9740 9820 0 0 1497 -11317 0 0 -11237 1497 0z"></path></g></svg></g></g></svg>