<svg xmlns="http://www.w3.org/2000/svg" xmlns:xlink="http://www.w3.org/1999/xlink" width="1200" height="1200" viewBox="0 0 1200 1200"><g><g transform="translate(600 600) scale(0.69 0.69) rotate(0) translate(-600 -600)" style="fill:#0d1c72"><svg fill="#0d1c72" xmlns="http://www.w3.org/2000/svg" xmlns:xlink="http://www.w3.org/1999/xlink" xml:space="preserve" version="1.1" style="shape-rendering:geometricPrecision;text-rendering:geometricPrecision;image-rendering:optimizeQuality;" viewBox="0 0 4058 4058" x="0px" y="0px" fill-rule="evenodd" clip-rule="evenodd"><defs><style type="text/css">
   
    .fil0 {fill:#0d1c72;fill-rule:nonzero}
   
  </style></defs><g><path class="fil0" d="M1982 2330c-2,-24 15,-46 39,-48 25,-3 46,14 49,38 12,107 49,187 114,237 65,52 161,75 290,68 24,-1 45,18 46,42 1,24 -18,45 -42,46 -151,8 -266,-22 -349,-86 -84,-66 -132,-166 -147,-297zm468 -29c3,24 -14,47 -39,50 -24,3 -46,-14 -49,-39 -19,-155 -121,-248 -238,-280 -75,-20 -155,-16 -225,11 -68,27 -126,76 -157,148 -57,129 -31,330 163,604 15,19 10,47 -10,61 -20,14 -47,10 -61,-10 -216,-304 -241,-536 -173,-691 42,-94 117,-159 206,-194 87,-34 187,-39 280,-14 148,40 278,158 303,354zm-850 258c11,21 3,48 -18,60 -21,11 -48,3 -60,-18 -51,-94 -77,-185 -81,-272 -6,-113 23,-218 77,-306 54,-88 132,-160 223,-210 80,-44 171,-70 264,-75 109,-6 227,17 333,77 91,52 174,132 232,244 89,170 73,302 15,386 -29,42 -69,72 -112,89 -43,17 -90,20 -134,10 -74,-18 -138,-75 -155,-176 -15,-88 -70,-138 -130,-154 -26,-7 -53,-8 -77,-2 -24,5 -45,16 -62,33l-2 2c-34,35 -47,98 -17,186 26,77 65,145 120,202 55,58 128,106 222,144 22,9 33,35 24,58 -9,22 -35,33 -57,24 -105,-43 -188,-98 -252,-165 -65,-68 -110,-146 -140,-234 -43,-126 -19,-219 37,-277l2 -3c29,-28 66,-47 105,-56 39,-9 80,-8 120,2 90,25 173,99 194,226 11,60 46,94 88,104 26,7 55,4 82,-6 27,-11 53,-30 71,-57 42,-60 51,-160 -20,-295 -50,-96 -120,-164 -198,-208 -90,-52 -191,-71 -284,-66 -80,4 -158,27 -227,65 -78,42 -144,103 -190,178 -45,74 -69,161 -64,255 4,74 26,153 71,235zm-142 -610c-15,19 -43,22 -62,7 -19,-16 -22,-43 -7,-62 45,-56 95,-105 148,-146 148,-113 325,-169 501,-168 175,0 350,58 494,173 50,41 97,88 138,142 15,19 11,47 -8,61 -20,15 -47,11 -62,-8 -37,-48 -79,-91 -123,-126 -128,-102 -283,-154 -440,-154 -156,-1 -314,49 -446,150 -49,37 -93,81 -133,131zm179 -362c-22,11 -49,2 -59,-20 -11,-21 -2,-48 20,-59 145,-71 290,-106 436,-105 145,0 291,36 435,105 22,11 32,37 21,59 -10,22 -37,31 -59,21 -133,-64 -265,-97 -397,-97 -132,-1 -265,31 -397,96zm1707 -873c-336,-337 -801,-545 -1315,-545 -513,0 -978,208 -1315,545 -337,337 -545,802 -545,1315 0,514 208,979 545,1315 337,337 802,545 1315,545 514,0 979,-208 1315,-545 337,-336 545,-801 545,-1315 0,-513 -208,-978 -545,-1315zm-1315 -714c561,0 1068,227 1435,594 367,368 594,875 594,1435 0,561 -227,1068 -594,1435 -367,367 -874,594 -1435,594 -560,0 -1067,-227 -1435,-594 -367,-367 -594,-874 -594,-1435 0,-560 227,-1067 594,-1435 368,-367 875,-594 1435,-594zm-1141 2133l-1 -830c0,-46 38,-84 85,-84 175,-17 348,-49 518,-95 171,-46 340,-107 504,-181 27,-12 56,-9 79,5 152,77 311,141 480,188 169,47 348,76 537,83 45,2 81,39 81,84l0 830c0,8 -1,16 -3,23 -53,282 -183,539 -378,745 -189,198 -439,349 -740,427 -14,4 -29,4 -42,0 -301,-78 -551,-229 -739,-427 -197,-208 -328,-468 -380,-752l-1 -16zm169 -754l0 748c47,249 162,476 334,657 163,172 379,304 638,375 260,-71 475,-203 638,-375 173,-181 287,-408 335,-657l0 -744c-173,-12 -337,-41 -494,-85 -168,-46 -328,-109 -481,-184 -161,70 -326,128 -494,174 -155,41 -314,72 -476,91z"></path></g></svg></g></g></svg>