<svg xmlns="http://www.w3.org/2000/svg" xmlns:xlink="http://www.w3.org/1999/xlink" width="1200" height="1200" viewBox="0 0 1200 1200"><g><g transform="translate(600 600) scale(0.69 0.69) rotate(0) translate(-600 -600)" style="fill:#0d1c72"><svg fill="#0d1c72" xmlns="http://www.w3.org/2000/svg" xmlns:xlink="http://www.w3.org/1999/xlink" xml:space="preserve" version="1.1" style="shape-rendering:geometricPrecision;text-rendering:geometricPrecision;image-rendering:optimizeQuality;" viewBox="0 0 3720 3720" x="0px" y="0px" fill-rule="evenodd" clip-rule="evenodd"><defs><style type="text/css">
   
    .fil0 {fill:#0d1c72;fill-rule:nonzero}
   
  </style></defs><g><path class="fil0" d="M1860 0c514,0 979,208 1315,545 337,336 545,801 545,1315 0,514 -208,979 -545,1315 -336,337 -801,545 -1315,545 -514,0 -979,-208 -1315,-545 -337,-336 -545,-801 -545,-1315 0,-514 208,-979 545,-1315 336,-337 801,-545 1315,-545zm1205 654c-308,-308 -734,-499 -1205,-499 -471,0 -897,191 -1206,499 -308,309 -499,735 -499,1206 0,471 191,897 499,1205 309,309 735,500 1206,500 471,0 897,-191 1205,-500 309,-308 500,-734 500,-1205 0,-471 -191,-897 -500,-1206zm-1381 1764c-61,-177 -133,-445 -146,-628 -4,-66 -2,-124 12,-168 20,-68 63,-107 132,-103 35,2 74,18 118,50 8,5 16,12 24,19 12,-11 27,-21 42,-30 145,-89 232,-74 281,5 67,111 -9,373 -78,612 -26,89 -50,174 -66,243l45 0c22,-106 89,-227 156,-349 75,-134 150,-270 150,-358 0,-139 -57,-265 -148,-356 -91,-91 -217,-148 -355,-148 -139,0 -265,57 -356,148 -91,91 -148,217 -148,356 0,100 80,247 156,389 61,112 120,222 145,318l36 0zm170 0c15,-79 44,-179 75,-283 60,-210 127,-440 93,-495 -1,-3 -24,9 -80,43 -12,7 -23,16 -32,25 7,14 13,27 19,41 15,39 26,78 28,112 4,49 -8,92 -40,120 -15,14 -34,23 -55,27 -40,7 -75,-5 -102,-30 -23,-22 -39,-52 -47,-88 -6,-30 -7,-64 -2,-99 5,-27 13,-56 25,-84 -8,-8 -15,-15 -22,-20 -11,-8 -19,-14 -26,-17 -6,25 -7,63 -4,110 14,188 94,474 155,638l15 0zm-3 -1357c179,0 341,73 459,190 118,118 190,280 190,460 0,125 -84,278 -167,429 -73,131 -145,262 -146,344l0 7 0 446c0,41 -33,74 -73,74l-43 0c-4,54 -27,103 -64,140 -40,40 -96,65 -156,65 -62,0 -117,-25 -157,-65 -37,-36 -60,-86 -64,-140l-43 0c-40,0 -73,-33 -73,-74l0 -443c-8,-81 -73,-201 -140,-325 -85,-158 -173,-322 -173,-458 0,-180 73,-342 190,-460 118,-117 280,-190 460,-190zm-190 1580l380 0 0 -76 -380 0 0 76zm380 147l-380 0 0 76 380 0 0 -76zm-137 260c8,-9 14,-19 18,-31l-143 0c4,12 10,22 19,30 13,14 32,22 53,22 20,0 39,-8 53,-21zm-1242 -1195c-40,0 -73,-33 -73,-73 0,-41 33,-74 73,-74l308 0c40,0 73,33 73,74 0,40 -33,73 -73,73l-308 0zm296 -870c-28,-29 -28,-75 0,-104 29,-28 75,-28 104,0l217 218c29,28 29,75 0,103 -28,29 -75,29 -103,0l-218 -217zm2100 714c40,0 73,33 73,73 0,40 -33,73 -73,73l-308 0c-40,0 -73,-33 -73,-73 0,-40 33,-73 73,-73l308 0zm-406 -824c28,-29 75,-29 103,0 29,28 29,75 0,104l-217 217c-29,28 -75,28 -104,0 -28,-29 -28,-75 0,-104l218 -217zm-870 -296c0,-40 33,-73 73,-73 41,0 74,33 74,73l0 308c0,40 -33,73 -74,73 -40,0 -73,-33 -73,-73l0 -308z"></path></g></svg></g></g></svg>