<svg xmlns="http://www.w3.org/2000/svg" xmlns:xlink="http://www.w3.org/1999/xlink" width="1200" height="1200" viewBox="0 0 1200 1200"><g><g transform="translate(600 600) scale(0.69 0.69) rotate(0) translate(-600 -600)" style="fill:#0d1c72"><svg fill="#0d1c72" xmlns="http://www.w3.org/2000/svg" xmlns:xlink="http://www.w3.org/1999/xlink" xml:space="preserve" version="1.1" style="shape-rendering:geometricPrecision;text-rendering:geometricPrecision;image-rendering:optimizeQuality;" viewBox="0 0 6532 6532" x="0px" y="0px" fill-rule="evenodd" clip-rule="evenodd"><defs><style type="text/css">
   
    .fil0 {fill:#0d1c72;fill-rule:nonzero}
   
  </style></defs><g><path class="fil0" d="M3266 0c902,0 1718,366 2309,957 591,591 957,1407 957,2309 0,902 -366,1718 -957,2309 -591,591 -1407,957 -2309,957 -902,0 -1718,-366 -2309,-957 -591,-591 -957,-1407 -957,-2309 0,-902 366,-1718 957,-2309 591,-591 1407,-957 2309,-957zm2117 1149c-542,-541 -1290,-877 -2117,-877 -827,0 -1575,336 -2117,877 -541,542 -877,1290 -877,2117 0,827 336,1575 877,2117 542,541 1290,877 2117,877 827,0 1575,-336 2117,-877 541,-542 877,-1290 877,-2117 0,-827 -336,-1575 -877,-2117zm-2117 280c180,0 344,73 462,192 119,118 193,282 193,462 0,181 -74,344 -192,463 -8,8 -17,16 -25,24l621 1077c64,-21 132,-32 203,-32 181,0 345,73 463,192 119,118 192,282 192,463 0,180 -73,344 -192,463 -119,118 -282,191 -463,191 -181,0 -344,-73 -463,-191 -88,-88 -151,-201 -177,-327l-1244 0c-27,126 -90,238 -177,326 -119,119 -283,192 -463,192 -181,0 -344,-73 -463,-191 -119,-119 -192,-283 -192,-463 0,-181 73,-345 192,-463 119,-118 283,-192 463,-192 71,0 139,11 203,32l621 -1077c-8,-7 -17,-15 -25,-23 -119,-119 -192,-283 -192,-464 0,-180 73,-344 192,-462 119,-119 283,-192 463,-192zm203 1277c-64,21 -132,32 -203,32 -71,0 -139,-11 -203,-32l-622 1077c9,8 17,16 25,24 88,88 151,201 178,327l1244 0c26,-127 89,-239 177,-327 8,-8 17,-16 25,-24l-311 -539 -310 -538zm-1195 1293c-69,-69 -164,-112 -270,-112 -106,0 -202,43 -271,112 -69,69 -112,165 -112,271 0,105 43,201 112,270 69,69 165,112 271,112 106,0 201,-43 270,-111 69,-70 112,-165 112,-271 0,-106 -43,-202 -112,-271zm2525 0c-69,-69 -165,-112 -271,-112 -105,0 -201,43 -270,112 -69,69 -112,165 -112,271 0,105 43,201 112,270 69,69 165,112 270,112 106,0 202,-43 271,-112 69,-69 112,-165 112,-270 0,-106 -43,-202 -112,-271zm-1262 -2186c-69,-69 -165,-112 -271,-112 -106,0 -202,43 -271,112 -69,69 -112,165 -112,270 0,106 43,202 113,271 69,69 164,112 270,112 106,0 202,-43 271,-112 69,-69 111,-165 111,-271 0,-105 -42,-201 -111,-270z"></path></g></svg></g></g></svg>