<svg xmlns="http://www.w3.org/2000/svg" xmlns:xlink="http://www.w3.org/1999/xlink" width="1200" height="1200" viewBox="0 0 1200 1200"><g><g transform="translate(600 600) scale(0.69 0.69) rotate(0) translate(-600 -600)" style="fill:#0d1c72"><svg fill="#0d1c72" xmlns="http://www.w3.org/2000/svg" xmlns:xlink="http://www.w3.org/1999/xlink" xml:space="preserve" version="1.1" style="shape-rendering:geometricPrecision;text-rendering:geometricPrecision;image-rendering:optimizeQuality;" viewBox="0 0 16217 16217" x="0px" y="0px" fill-rule="evenodd" clip-rule="evenodd"><defs><style type="text/css">
   
    .fil0 {fill:#0d1c72;fill-rule:nonzero}
   
  </style></defs><g><path class="fil0" d="M8109 0c2239,0 4266,908 5733,2375 1468,1467 2375,3495 2375,5734 0,2239 -907,4266 -2375,5733 -1467,1468 -3494,2375 -5733,2375 -2239,0 -4267,-907 -5734,-2375 -1467,-1467 -2375,-3494 -2375,-5733 0,-2239 908,-4267 2375,-5734 1467,-1467 3495,-2375 5734,-2375zm5255 2853c-1345,-1345 -3203,-2177 -5255,-2177 -2053,0 -3911,832 -5256,2177 -1345,1345 -2177,3203 -2177,5256 0,2052 832,3910 2177,5255 1345,1345 3203,2177 5256,2177 2052,0 3910,-832 5255,-2177 1345,-1345 2177,-3203 2177,-5255 0,-2053 -832,-3911 -2177,-5256zm-4654 778c94,-161 300,-216 462,-123 161,94 216,300 122,461l-2142 3711 2498 0c187,0 338,151 338,338 0,73 -23,140 -62,195l-2524 4372c-92,161 -298,216 -459,124 -162,-93 -217,-299 -125,-460l2248 -3893 -2499 0c-57,-1 -115,-15 -169,-46 -161,-93 -216,-300 -123,-461l2435 -4218z"></path></g></svg></g></g></svg>