<svg xmlns="http://www.w3.org/2000/svg" xmlns:xlink="http://www.w3.org/1999/xlink" width="1200" height="1200" viewBox="0 0 1200 1200"><g><g transform="translate(600 600) scale(0.69 0.69) rotate(0) translate(-600 -600)" style="fill:#0d1c72"><svg fill="#0d1c72" xmlns="http://www.w3.org/2000/svg" xmlns:xlink="http://www.w3.org/1999/xlink" xml:space="preserve" version="1.1" style="shape-rendering:geometricPrecision;text-rendering:geometricPrecision;image-rendering:optimizeQuality;" viewBox="0 0 5650 5650" x="0px" y="0px" fill-rule="evenodd" clip-rule="evenodd"><defs><style type="text/css">
   
    .fil0 {fill:#0d1c72;fill-rule:nonzero}
   
  </style></defs><g><path class="fil0" d="M4656 994c-469,-469 -1116,-758 -1831,-758 -715,0 -1363,289 -1831,758 -469,468 -758,1116 -758,1831 0,715 289,1362 758,1831 468,468 1116,758 1831,758 715,0 1362,-290 1831,-758 468,-469 758,-1116 758,-1831 0,-715 -290,-1363 -758,-1831zm-1831 -994c780,0 1486,316 1997,827 511,512 828,1218 828,1998 0,780 -317,1486 -828,1997 -511,511 -1217,828 -1997,828 -780,0 -1486,-317 -1998,-828 -511,-511 -827,-1217 -827,-1997 0,-780 316,-1486 827,-1998 512,-511 1218,-827 1998,-827zm-132 3896l0 -1439c-61,-15 -119,-40 -171,-73 -34,-22 -65,-47 -94,-75 -39,62 -73,134 -101,212 -48,137 -75,294 -75,461 0,25 0,50 1,75l1 0 0 1 0 2 0 4c9,180 50,345 115,482l5 11 0 1c19,39 40,76 62,110 72,109 160,189 257,228zm264 -1439l0 1439c96,-39 185,-119 256,-228 23,-34 44,-71 62,-110l1 -1 5 -10c64,-137 105,-303 115,-483l0 -4 0 -2 0 -1 0 0c1,-25 2,-50 2,-75 0,-167 -28,-324 -75,-461 -28,-78 -62,-150 -102,-212 -28,28 -60,53 -94,75 -51,33 -109,58 -170,73zm623 1047c115,25 219,64 312,117 140,80 253,191 334,336 36,63 14,143 -49,179 -63,36 -144,13 -180,-50 -57,-102 -136,-180 -235,-237 -83,-47 -180,-79 -292,-98 -12,21 -24,41 -37,61 -152,231 -367,374 -608,374 -242,0 -456,-143 -608,-374 -13,-20 -26,-40 -38,-61 -111,19 -209,51 -292,98 -98,57 -177,135 -235,237 -36,63 -116,86 -179,50 -63,-36 -85,-116 -50,-179 82,-145 194,-256 335,-336 92,-53 196,-92 312,-117 -32,-95 -55,-198 -69,-305l-681 0c-73,0 -132,-59 -132,-132 0,-73 59,-132 132,-132l669 0c3,-110 16,-216 38,-317 -86,2 -170,-9 -253,-34 -150,-44 -294,-130 -433,-255 -54,-48 -58,-132 -9,-186 48,-54 132,-58 186,-9 109,98 219,165 330,198 86,25 175,30 266,13 58,-136 136,-255 226,-346 51,-52 134,-53 186,-2 12,11 21,25 27,39 24,52 63,96 111,127 46,29 101,46 161,46 59,0 114,-17 160,-46 48,-31 87,-75 111,-127 30,-66 109,-95 175,-65 16,8 31,19 42,31 89,92 165,208 223,343 90,17 179,12 266,-13 110,-33 220,-100 330,-198 54,-49 137,-45 186,9 48,54 44,138 -10,186 -138,125 -282,211 -432,255 -83,25 -168,36 -253,34 22,101 35,207 38,317l669 0c72,0 131,59 131,132 0,73 -59,132 -131,132l-682 0c-14,107 -37,210 -68,305zm-1033 -1829l-265 -265c-46,-46 -46,-120 0,-166 46,-46 121,-46 167,0l248 248c38,-20 82,-30 128,-30 43,0 85,10 122,27l215 -240c43,-49 117,-53 165,-10 49,44 53,118 10,166l-236 264c7,25 11,52 11,80 0,159 -128,288 -287,288 -159,0 -288,-129 -288,-288 0,-25 4,-50 10,-74z"></path></g></svg></g></g></svg>