<?xml version="1.0" encoding="utf-8"?>
<!-- Generator: Adobe Illustrator 19.0.0, SVG Export Plug-In . SVG Version: 6.00 Build 0)  -->
<svg version="1.1" id="Layer_1" xmlns="http://www.w3.org/2000/svg" xmlns:xlink="http://www.w3.org/1999/xlink" x="0px" y="0px"
	 viewBox="-585 237 28 28" style="enable-background:new -585 237 28 28;" xml:space="preserve">
<style type="text/css">
	.st0{fill:#B2D8B2;stroke:#9FCFAC;stroke-width:2;stroke-miterlimit:10;}
	.st1{fill:#FFFFFF;}
</style>
<path id="_" class="st0" d="M-582.5,238h23c0.8,0,1.5,0.7,1.5,1.5v23c0,0.8-0.7,1.5-1.5,1.5h-23c-0.8,0-1.5-0.7-1.5-1.5v-23
	C-584,238.7-583.3,238-582.5,238z"/>
<path id="_3" class="st1" d="M-564.4,247.1l-7,9.5c-0.5,0.5-1.2,0.5-1.7,0l-4.6-4.6c-0.5-0.5-0.5-1.2,0-1.7c0.5-0.5,1.2-0.5,1.7,0
	l3.6,3.6l6.3-8.5c0.5-0.5,1.2-0.5,1.7,0C-563.9,245.8-563.9,246.6-564.4,247.1L-564.4,247.1z"/>
</svg>
