<?xml version="1.0" encoding="utf-8"?>
<!-- Generator: Adobe Illustrator 16.0.0, SVG Export Plug-In . SVG Version: 6.00 Build 0)  -->
<!DOCTYPE svg PUBLIC "-//W3C//DTD SVG 1.1//EN" "http://www.w3.org/Graphics/SVG/1.1/DTD/svg11.dtd">
<svg version="1.1" id="Layer_1" xmlns="http://www.w3.org/2000/svg" xmlns:xlink="http://www.w3.org/1999/xlink" x="0px" y="0px"
	 width="828px" height="831px" viewBox="167.5 193.5 828 831" enable-background="new 167.5 193.5 828 831" xml:space="preserve">
<g>
	<g transform="translate(600 600) scale(0.69 0.69) rotate(0) translate(-600 -600)">
		<g>
			<path fill="#62656F" d="M872.463,391.044v-78c0-102-78-180-180-180l0,0v-120h-120v120h-300v-120h-120v120
				c-102.001,0-180,78-180,180v539.999c0,102.001,78,180,180,180h257.999c78,108.001,204.001,180,342.001,180c234,0,420-186,420-420
				C1172.463,601.043,1046.462,445.044,872.463,391.044z M152.463,913.043c-36,0-60.001-23.999-60.001-60.001V313.043
				c0-36,24-60,60.001-60v60h120v-60h300v60h120v-60l0,0c36,0,60.001,24.001,60.001,60v60.001l0,0c-234,0-420,186-420,420
				c0,41.999,6,84,18,120H152.463z M752.463,1093.044c-168,0-300-132-300-300s132-300,300-300s300,132,300,300
				S920.463,1093.044,752.463,1093.044z"/>
			<polygon fill="#62656F" points="692.463,733.043 632.464,733.043 632.464,853.043 812.463,853.043 812.463,613.043 
				692.463,613.043 			"/>
		</g>
	</g>
</g>
</svg>
