<?xml version="1.0" encoding="UTF-8"?>
<svg width="976px" height="977px" viewBox="0 0 976 977" version="1.1" xmlns="http://www.w3.org/2000/svg" xmlns:xlink="http://www.w3.org/1999/xlink">
    <!-- Generator: Sketch 43.1 (39012) - http://www.bohemiancoding.com/sketch -->
    <title>next</title>
    <desc>Created with Sketch.</desc>
    <defs></defs>
    <g id="Page-1" stroke="none" stroke-width="1" fill="none" fill-rule="evenodd">
        <g id="next" fill-rule="nonzero" fill="#CACACA">
            <g id="Group">
                <path d="M488,100.3 C507.5,100.3 527,101.6 546.3,104.1 C541.9,103.5 537.4,102.9 533,102.3 C571.4,107.5 608.9,117.6 644.6,132.6 C640.6,130.9 636.6,129.2 632.7,127.6 C667.5,142.3 700.3,161.5 730.3,184.6 C726.9,182 723.6,179.4 720.2,176.8 C749.9,199.8 776.6,226.5 799.6,256.2 C797,252.8 794.4,249.5 791.8,246.1 C814.9,276.1 834,308.9 848.8,343.7 C847.1,339.7 845.4,335.7 843.8,331.8 C858.8,367.5 869,405 874.1,443.4 C873.5,439 872.9,434.5 872.3,430.1 C877.4,468.8 877.4,508 872.3,546.7 C872.9,542.3 873.5,537.8 874.1,533.4 C868.9,571.8 858.8,609.3 843.8,645 C845.5,641 847.2,637 848.8,633.1 C834.1,667.9 814.9,700.7 791.8,730.7 C794.4,727.3 797,724 799.6,720.6 C776.6,750.3 749.9,777 720.2,800 C723.6,797.4 726.9,794.8 730.3,792.2 C700.3,815.3 667.5,834.4 632.7,849.2 C636.7,847.5 640.7,845.8 644.6,844.2 C608.9,859.2 571.4,869.4 533,874.5 C537.4,873.9 541.9,873.3 546.3,872.7 C507.6,877.8 468.4,877.8 429.7,872.7 C434.1,873.3 438.6,873.9 443,874.5 C404.6,869.3 367.1,859.2 331.4,844.2 C335.4,845.9 339.4,847.6 343.3,849.2 C308.5,834.5 275.7,815.3 245.7,792.2 C249.1,794.8 252.4,797.4 255.8,800 C226.1,777 199.4,750.3 176.4,720.6 C179,724 181.6,727.3 184.2,730.7 C161.1,700.7 142,667.9 127.2,633.1 C128.9,637.1 130.6,641.1 132.2,645 C117.2,609.3 107,571.8 101.9,533.4 C102.5,537.8 103.1,542.3 103.7,546.7 C98.6,508 98.6,468.8 103.7,430.1 C103.1,434.5 102.5,439 101.9,443.4 C107.1,405 117.2,367.5 132.2,331.8 C130.5,335.8 128.8,339.8 127.2,343.7 C141.9,308.9 161.1,276.1 184.2,246.1 C181.6,249.5 179,252.8 176.4,256.2 C199.4,226.5 226.1,199.8 255.8,176.8 C252.4,179.4 249.1,182 245.7,184.6 C275.7,161.5 308.5,142.4 343.3,127.6 C339.3,129.3 335.3,131 331.4,132.6 C367.1,117.6 404.6,107.4 443,102.3 C438.6,102.9 434.1,103.5 429.7,104.1 C449,101.6 468.5,100.3 488,100.3 C500.8,100.3 514.3,94.7 523.4,85.7 C532.1,77 538.6,62.8 538,50.3 C537.4,37.4 533.2,24 523.4,14.9 C513.6,5.9 501.6,0.2 488,0.3 C437.9,0.4 386.9,7.9 339.2,23.5 C293.1,38.5 248.5,60 209,88.1 C187.8,103.2 167.3,119.6 148.6,137.7 C129.9,155.7 113.4,175.5 97.6,196.1 C67.9,234.8 45.5,278 28.7,323.7 C11.4,370.6 2.4,420.8 0.4,470.7 C-1.6,521 4.6,572.5 18.3,621 C31.6,667.9 52.1,713.6 78.9,754.3 C105.4,794.4 137.3,831.3 174.4,861.9 C194.4,878.4 215.3,893.8 237.5,907.2 C260.2,920.8 284,931.8 308.5,941.9 C354.7,960.9 404,971.1 453.7,975 C504.2,978.9 555.9,974.1 605.1,962.2 C652.4,950.7 698.6,931.5 740.1,906.3 C781.1,881.4 819.1,850.3 851,814.4 C883,778.3 910.6,737.9 930.5,693.8 C941.4,669.6 951.1,644.8 958.3,619.2 C965.5,593.2 969.9,566.7 973,539.9 C978.9,489.3 975.6,437.8 965.5,387.9 C955.8,340 937.9,293.2 914.1,250.6 C890.8,208.7 860.6,169.7 826,136.6 C791.3,103.4 751.4,74.6 708.3,53.1 C664,31 616.7,14.7 567.6,7.3 C541.1,3.3 514.6,0.5 487.9,0.5 C475.1,0.5 461.6,6.1 452.5,15.1 C443.8,23.8 437.3,38 437.9,50.5 C438.5,63.4 442.7,76.8 452.5,85.9 C462.4,94.6 474.4,100.3 488,100.3 Z" id="Shape"></path>
                <path d="M390,327.5 C410.4,347.9 430.7,368.2 451.1,388.6 C483.4,420.9 515.6,453.1 547.9,485.4 C555.6,493.1 564.2,500.5 571.2,508.9 C568.6,505.5 566,502.2 563.4,498.8 C564.8,500.7 565.9,502.7 566.9,504.9 C565.2,500.9 563.5,496.9 561.9,493 C562.5,494.8 563,496.5 563.3,498.3 C562.7,493.9 562.1,489.4 561.5,485 C561.8,487.3 561.8,489.5 561.5,491.8 C562.1,487.4 562.7,482.9 563.3,478.5 C563,480.3 562.5,482.1 561.9,483.8 C563.6,479.8 565.3,475.8 566.9,471.9 C566,474.1 564.8,476.1 563.4,478 C566,474.6 568.6,471.3 571.2,467.9 C565.4,474.8 558.4,480.9 552.1,487.3 C537.9,501.5 523.7,515.7 509.5,529.9 C477.1,562.3 444.7,594.7 412.4,627 C405,634.4 397.5,641.9 390.1,649.3 C381,658.4 375.5,671.8 375.5,684.7 C375.5,697 380.9,711.6 390.1,720.1 C399.6,728.8 412.1,735.3 425.5,734.7 C438.8,734.1 451.3,729.6 460.9,720.1 C482.6,698.4 504.4,676.6 526.1,654.9 C558.7,622.3 591.4,589.6 624,557 C633.9,547.1 646.6,536.4 652.8,523.8 C658.4,512.2 661.8,501.7 661.8,488.6 C661.8,475.6 658.2,464.3 652.5,452.8 C649.4,446.4 644.5,440.8 639.5,435.7 C636.7,432.8 633.8,430 631,427.2 C600.3,396.5 569.6,365.8 538.9,335.1 C513.3,309.5 487.9,283.8 462.2,258.4 L460.9,257.1 C451.8,248 438.4,242.5 425.5,242.5 C413.2,242.5 398.6,247.9 390.1,257.1 C381.4,266.6 374.9,279.1 375.5,292.5 C376,305.4 380.4,317.9 390,327.5 L390,327.5 Z" id="Shape"></path>
            </g>
        </g>
    </g>
</svg>